<svg xmlns="http://www.w3.org/2000/svg" viewBox="0 0 512 512">
  <defs>
    <linearGradient id="grad1" x1="0%" y1="0%" x2="100%" y2="100%">
      <stop offset="0%" style="stop-color:#fbbf24;stop-opacity:1" />
      <stop offset="100%" style="stop-color:#8b5cf6;stop-opacity:1" />
    </linearGradient>
    <linearGradient id="grad2" x1="0%" y1="100%" x2="100%" y2="0%">
      <stop offset="0%" style="stop-color:#f59e0b;stop-opacity:1" />
      <stop offset="100%" style="stop-color:#ec4899;stop-opacity:1" />
    </linearGradient>
  </defs>
  <rect width="512" height="512" rx="100" fill="url(#grad1)"/>
  <path d="M256 80 C200 80 150 130 150 200 C150 250 170 290 200 320 C220 340 230 360 230 380 C230 410 210 430 180 430 C140 430 120 400 120 360 C120 300 160 260 200 220 C240 180 290 150 340 140 C320 120 280 80 256 80Z" fill="url(#grad2)"/>
  <ellipse cx="340" cy="350" rx="80" ry="80" fill="#fbbf24" opacity="0.8"/>
</svg>
